<?xml version="1.0" encoding="UTF-8" standalone="no"?>
<svg width="20" height="20" viewBox="0 0 20 20" xmlns="http://www.w3.org/2000/svg">
  <path d="M0 0h20v20H0V0zm1 1v18h18V1H1z" fill="#000" fill-opacity=".1"/>
  <path d="M1 1h1v1H1V1zm2 0h1v1H3V1zm2 0h1v1H5V1zm2 0h1v1H7V1zm2 0h1v1H9V1zm2 0h1v1h-1V1zm2 0h1v1h-1V1zm2 0h1v1h-1V1zm2 0h1v1h-1V1zm0 2h1v1h-1V3zm0 2h1v1h-1V5zm0 2h1v1h-1V7zm0 2h1v1h-1V9zm0 2h1v1h-1v-1zm0 2h1v1h-1v-1zm0 2h1v1h-1v-1zm0 2h1v1h-1v-1zm-2 0h1v1h-1v-1zm-2 0h1v1h-1v-1zm-2 0h1v1h-1v-1zm-2 0h1v1h-1v-1zm-2 0h1v1H9v-1zm-2 0h1v1H7v-1zm-2 0h1v1H5v-1zm-2 0h1v1H3v-1zm-2 0h1v1H1v-1zm0-2h1v1H1v-1zm0-2h1v1H1v-1zm0-2h1v1H1v-1zm0-2h1v1H1V9zm0-2h1v1H1V7zm0-2h1v1H1V5zm0-2h1v1H1V3z" fill="#000" fill-opacity=".05"/>
</svg>
